<svg xmlns="http://www.w3.org/2000/svg" viewBox="0 0 104 64"><path fill="#2E77BC" d="M104 63.3c0 .4-.3.7-.7.7H.7c-.4 0-.7-.3-.7-.7V.7C0 .3.3 0 .7 0h102.6c.4 0 .7.3.7.7v62.6z"/><path fill="#FFF" d="M52 33.2h2.6v-6h3.1l3.9 6h3l-4.1-6.3c2.2-.5 3.4-2 3.4-4.1 0-2.6-1.6-4.4-5-4.4h-6.9v14.8zm2.6-8.2v-4.4h3.7c1.6 0 2.5.7 2.5 2.2 0 1.4-.9 2.2-2.5 2.2h-3.7zm-6.4-6.6l-4.5 14.8h2.8l.9-2.7h6.1l.9 2.7h2.8L52.6 18h-4.4v.4zm-2.1 9.9l1.8-5.5 1.8 5.5h-3.6zm-4.7-3.3h4.2v-2.2h-4.2v-2.2h4.7V18h-7.3v14.8h7.5v-2.2h-4.9v-2.8zm-12.1 6.6h7.7V33h-5.1v-5.1h4.9v-2.2h-4.9v-5.1h5.1V18h-7.7v14.8zm56.2-14.8l-3.3 8.5-3.3-8.5h-2.9l4.7 11.9v2.9h2.6v-2.9l4.7-11.9h-2.5zm7.4 14.8h2.6v-6h3.1l3.9 6h3l-4.1-6.3c2.2-.5 3.4-2 3.4-4.1 0-2.6-1.6-4.4-5-4.4h-6.9v14.8zm2.6-8.2v-4.4h3.7c1.6 0 2.5.7 2.5 2.2 0 1.4-.9 2.2-2.5 2.2h-3.7z"/></svg>
