<svg xmlns="http://www.w3.org/2000/svg" viewBox="0 0 165.52 64"><path d="M150.7 0H14.82C6.64 0 0 6.64 0 14.82v34.36C0 57.36 6.64 64 14.82 64h135.88c8.18 0 14.82-6.64 14.82-14.82V14.82C165.52 6.64 158.88 0 150.7 0z"/><path fill="#FFF" d="M30.22 19.5c-.86.86-2.31 1.53-3.71 1.43-.18-1.43.51-2.94 1.28-3.89.86-1.02 2.4-1.79 3.63-1.84.15 1.53-.43 3.04-1.2 4.3m1.2 2.1c-2.01-.12-3.74 1.14-4.68 1.14-.97 0-2.43-1.09-4.02-1.07-2.06.03-3.97 1.2-5.03 3.04-2.16 3.74-.56 9.26 1.53 12.3 1.02 1.48 2.24 3.12 3.84 3.07 1.53-.06 2.11-.99 3.97-.99 1.84 0 2.37.99 3.97.96 1.64-.03 2.68-1.48 3.69-2.96 1.15-1.69 1.63-3.33 1.66-3.41-.03-.03-3.18-1.22-3.21-4.86-.03-3.04 2.47-4.5 2.59-4.56-1.43-2.09-3.64-2.32-4.31-2.37m11.27 14.63h2.77l1.79-5.62h6.21l1.79 5.62h2.85l-6.34-19.7h-2.72l-6.35 19.7zm5.16-7.91l2.34-7.3h.05l2.32 7.3h-4.71zm21.55-4.68c0-3.08-2.11-5.03-5.29-5.03h-5.52v19.62h2.67v-7.35h2.24l4.89 7.35h3.1l-5.16-7.63c2.42-.84 3.07-2.98 3.07-4.93v2.97zm-8.14-2.85h2.54c2.01 0 3.02.97 3.02 2.85 0 1.86-1.02 2.85-3.02 2.85h-2.54v-5.7zm19.8 15.44c2.67 0 4.1-1.3 4.99-2.62h.08v2.62h2.52V24.53c0-3.18-2.54-5.21-6.47-5.21-3.84 0-6.32 2.19-6.47 5.11h2.47c.23-1.66 1.71-2.93 3.92-2.93 2.54 0 3.94 1.2 3.94 3.43v1.51l-5.16.31c-4.79.31-7.38 1.81-7.38 4.99 0 3.02 2.37 5.01 5.54 5.01h2.02zm-.43-2.11c-2.21 0-3.61-1.07-3.61-2.7 0-1.71 1.35-2.7 4.17-2.88l4.61-.31v1.53c0 2.52-2.14 4.35-5.16 4.35v.01zm19.98 2.11c4.53 0 7.48-3.1 7.48-8.16 0-5.03-2.93-8.14-7.45-8.14-4.51 0-7.45 3.12-7.45 8.14-.01 5.06 2.92 8.16 7.42 8.16zm0-2.19c-3.1 0-4.71-2.34-4.71-5.98 0-3.61 1.63-5.96 4.71-5.96s4.74 2.34 4.74 5.96c0 3.64-1.63 5.98-4.74 5.98zm9.73 2.19h2.67V30.1c0-2.44 1.53-4.07 3.92-4.07.61 0 1.63.13 1.89.23v-2.57c-.31-.08-.92-.15-1.48-.15-1.91 0-3.61 1.15-4.25 2.85h-.08v-2.67h-2.67v12.81zm19.29 0c4.53 0 7.48-3.1 7.48-8.16 0-5.03-2.93-8.14-7.45-8.14-4.51 0-7.45 3.12-7.45 8.14 0 5.06 2.93 8.16 7.42 8.16zm0-2.19c-3.1 0-4.71-2.34-4.71-5.98 0-3.61 1.63-5.96 4.71-5.96s4.74 2.34 4.74 5.96c0 3.64-1.63 5.98-4.74 5.98zm18.3 2.19c3.61 0 6.06-2.01 6.52-5.11h-2.57c-.51 1.86-2.01 2.93-3.94 2.93-2.85 0-4.61-2.29-4.61-6.01 0-3.66 1.79-5.93 4.61-5.93 2.21 0 3.51 1.33 3.94 2.93h2.57c-.46-3.18-2.98-5.11-6.55-5.11-4.43 0-7.35 3.15-7.35 8.14 0 4.94 2.85 8.16 7.38 8.16z"/></svg>
