<svg xmlns="http://www.w3.org/2000/svg" viewBox="0 0 437 174"><g fill="none"><path fill="#5F6368" d="M207.2 84.6v50.8h-16.1V10h42.7c10.3 0 19.2 3.7 26.6 11s11.1 16.3 11.1 26.8c0 10.7-3.7 19.6-11.1 26.8-7.4 7.2-16.3 10.8-26.6 10.8h-26.6zm0-59.2v43.8h27c7.4 0 13.7-2.4 18.8-7.3 5.1-4.8 7.7-10.8 7.7-17.9 0-7-2.6-13-7.7-17.9-5.1-4.8-11.4-7.3-18.8-7.3h-27zm102.7 71c-7-7.2-10.5-16.1-10.5-26.6 0-10.5 3.5-19.4 10.5-26.6 7-7.2 15.6-10.8 25.7-10.8 10.1 0 18.7 3.6 25.7 10.8 7 7.2 10.5 16.1 10.5 26.6 0 10.5-3.5 19.4-10.5 26.6-7 7.2-15.6 10.8-25.7 10.8-10.1 0-18.7-3.6-25.7-10.8zm6.9-44.4c-4.9 5-7.4 11.1-7.4 18.3 0 7.2 2.5 13.3 7.4 18.3 4.9 5 11 7.5 18.3 7.5 7.3 0 13.4-2.5 18.3-7.5 4.9-5 7.4-11.1 7.4-18.3 0-7.2-2.5-13.3-7.4-18.3-4.9-5-11-7.5-18.3-7.5-7.3 0-13.4 2.5-18.3 7.5zm96.1-10.9c6.8 0 12.4 2.1 16.7 6.4 4.3 4.3 6.5 9.9 6.5 16.9v41h-7.2l-2-8.6c-2.7 3.2-5.9 5.7-9.6 7.4-3.7 1.7-7.6 2.6-11.7 2.6-6.7 0-12.2-1.9-16.4-5.6-4.2-3.7-6.3-8.6-6.3-14.6 0-6.2 2.3-11.1 7-14.9 4.7-3.8 11.1-5.7 19.3-5.7h17.7v-2c0-4.8-1.6-8.7-4.7-11.5-3.1-2.8-7.3-4.2-12.5-4.2-3.7 0-7.1.7-10.3 2.1-3.2 1.4-5.9 3.3-8.2 5.7l-6.5-7.5c3.2-3.3 6.9-5.8 11.3-7.5 4.3-1.8 9-2.6 14-2.6zm-12.7 55.3c3.2 2.2 7.1 3.3 11.6 3.3 4.5 0 8.6-1.1 12.3-3.3 3.7-2.2 6.5-5.2 8.4-9v-9.2h-17.7c-11.1 0-16.7 3.9-16.7 11.7 0 3.1 1 5.5 3 7.3l-.9-.8zm79.1-54.4c5.3 0 10 1.2 14.1 3.7 4.1 2.5 7.3 5.9 9.6 10.4 2.3 4.4 3.4 9.5 3.4 15.2 0 5.7-1.1 10.8-3.4 15.2-2.3 4.4-5.5 7.9-9.6 10.4-4.1 2.5-8.8 3.7-14.1 3.7-4.1 0-7.8-.8-11.2-2.3-3.4-1.6-6.2-3.7-8.4-6.4v33.7h-15.3V42.6h14.6v8.4c2.2-2.8 5-5 8.5-6.6 3.4-1.6 7.2-2.4 11.8-2.4zm-4.3 45.7c5.3 0 9.6-1.7 12.9-5.2 3.3-3.5 4.9-8.1 4.9-13.9 0-5.8-1.6-10.4-4.9-13.9-3.3-3.5-7.6-5.2-12.9-5.2-5.3 0-9.6 1.7-12.9 5.2-3.3 3.5-4.9 8.1-4.9 13.9 0 5.8 1.6 10.4 4.9 13.9 3.3 3.5 7.6 5.2 12.9 5.2z"/><path fill="#4285F4" d="M38.7 85.3c0-3.8-.3-7.5-1-11.1H19.8v21h10.6c-.5 2.5-1.8 4.7-3.8 6.4v5.3h6.2c3.6-3.3 5.9-8.2 5.9-13.7v-7.9z"/><path fill="#34A853" d="M19.8 107.6c5.2 0 9.5-1.7 12.7-4.7l-6.2-4.8c-1.7 1.1-3.9 1.8-6.5 1.8-5 0-9.2-3.4-10.7-7.9h-6.4v5c3.2 6.3 9.7 10.6 17.1 10.6z"/><path fill="#FBBC05" d="M9.1 91.9c-.4-1.2-.6-2.5-.6-3.8 0-1.3.2-2.6.6-3.8v-5h-6.4c-1.3 2.6-2 5.4-2 8.4s.7 5.8 2 8.4l6.4-4.2z"/><path fill="#EA4335" d="M19.8 76.3c2.8 0 5.3 1 7.3 2.9l5.5-5.5C29.5 70.9 25 69 19.8 69c-7.4 0-13.9 4.3-17.1 10.6l6.4 5c1.5-4.5 5.7-7.9 10.7-7.9z"/></g></svg>
