<svg xmlns="http://www.w3.org/2000/svg" viewBox="0 0 101.6 60"><path fill="#253B80" d="M94.4 0h-87C3.3 0 0 3.3 0 7.4v45.2C0 56.7 3.3 60 7.4 60h87c4.1 0 7.4-3.3 7.4-7.4V7.4c-.2-4.1-3.5-7.4-7.4-7.4z"/><path fill="#179BD7" d="M49.1 16.1c-.4-2.9-2.9-2.9-5.2-2.9h-6.7l-4.7 29.5h4.2l1.3-8.2h4.3c1.7 0 3.1 0 4.9-.5 2.6-.8 4.3-3.1 4.7-5.8.7-4.3-.3-8.7-2.8-12.1zm-2.6 8.7c-.2 1.5-1.3 2.6-2.8 2.8-1 .2-2.1.2-3.1.2h-2.4l1.3-8.2h2.9c1.5 0 2.9 0 3.6.7 1 .8 1 2.8.5 4.5z"/><path fill="#253B80" d="M23.5 16.1c-.4-2.9-2.9-2.9-5.2-2.9h-6.7L6.9 42.7h4.2l1.3-8.2h4.3c1.7 0 3.1 0 4.9-.5 2.6-.8 4.3-3.1 4.7-5.8.7-4.3-.3-8.7-2.8-12.1zm-2.6 8.7c-.2 1.5-1.3 2.6-2.8 2.8-1 .2-2.1.2-3.1.2h-2.4l1.3-8.2h2.9c1.5 0 2.9 0 3.6.7 1 .8 1 2.8.5 4.5z"/><path fill="#179BD7" d="M74.7 16.1c-.4-2.9-2.9-2.9-5.2-2.9h-6.7l-4.7 29.5H62l1.3-8.2h4.3c1.7 0 3.1 0 4.9-.5 2.6-.8 4.3-3.1 4.7-5.8.7-4.3-.2-8.7-2.5-12.1zm-2.6 8.7c-.2 1.5-1.3 2.6-2.8 2.8-1 .2-2.1.2-3.1.2h-2.4l1.3-8.2h2.9c1.5 0 2.9 0 3.6.7.8.8.8 2.8.5 4.5z"/></svg>
