<svg xmlns="http://www.w3.org/2000/svg" viewBox="0 0 1000.046 323.653"><path fill="#00579f" d="M433.98 318.131h-87.02l54.436-321.711h87.02l-54.436 321.711zM727.742 12.283c-17.221-6.434-44.418-13.528-78.193-13.528-86.146 0-146.867 43.4-147.241 105.582-.747 45.956 43.28 71.558 76.305 86.833 33.89 15.636 45.28 25.601 45.084 39.507-.373 21.314-27.035 31.093-52.017 31.093-34.644 0-53.053-4.809-81.406-16.622l-11.147-5.059-12.136 71.001c20.198 8.808 57.662 16.462 96.422 16.835 91.01 0 150.122-42.873 150.87-109.252.373-36.366-22.832-64.024-72.895-86.833-30.407-14.762-49.026-24.54-48.839-39.507.187-13.341 15.636-27.409 49.333-27.409 28.21-.561 48.653 5.746 64.476 12.136l7.747 3.68 11.637-68.458zM834.864 318.131h71.372l44.605-321.711h-71.372l-44.605 321.711zm321.711-321.711h-65.813c-20.385 0-35.767 5.559-44.791 25.787l-127.009 295.924h89.759l17.967-47.205 109.603.125c2.55 11.147 10.484 47.08 10.484 47.08h79.338l-69.538-321.711zm-105.957 206.674c7.06-18.082 34.082-87.895 34.082-87.895-.373.748 7.061-18.269 11.398-30.22l5.933 27.409c0 0 16.374 74.928 19.83 90.706h-71.243z"/></svg>
